<?xml version="1.0" encoding="UTF-8" standalone="no"?>
<!-- Created with Inkscape (http://www.inkscape.org/) -->

<svg
   width="210mm"
   height="297mm"
   viewBox="0 0 210 297"
   version="1.1"
   id="svg5"
   inkscape:version="1.2.2 (b0a84865, 2022-12-01)"
   sodipodi:docname="wobbegong.svg"
   inkscape:export-filename="wobbegong.png"
   inkscape:export-xdpi="96"
   inkscape:export-ydpi="96"
   xmlns:inkscape="http://www.inkscape.org/namespaces/inkscape"
   xmlns:sodipodi="http://sodipodi.sourceforge.net/DTD/sodipodi-0.dtd"
   xmlns="http://www.w3.org/2000/svg"
   xmlns:svg="http://www.w3.org/2000/svg">
  <sodipodi:namedview
     id="namedview7"
     pagecolor="#ffffff"
     bordercolor="#000000"
     borderopacity="0.25"
     inkscape:showpageshadow="2"
     inkscape:pageopacity="0.0"
     inkscape:pagecheckerboard="0"
     inkscape:deskcolor="#d1d1d1"
     inkscape:document-units="mm"
     showgrid="false"
     inkscape:zoom="0.84096521"
     inkscape:cx="164.69171"
     inkscape:cy="557.09796"
     inkscape:window-width="2879"
     inkscape:window-height="1285"
     inkscape:window-x="2262"
     inkscape:window-y="25"
     inkscape:window-maximized="0"
     inkscape:current-layer="layer1" />
  <defs
     id="defs2" />
  <g
     inkscape:label="Layer 1"
     inkscape:groupmode="layer"
     id="layer1">
    <path
       style="fill:#6c5d53;fill-opacity:1;stroke:none;stroke-width:1.2276;stroke-linecap:round;stroke-dasharray:none;stroke-dashoffset:0;stroke-opacity:1"
       d="m 20.800849,140.67431 c -8.720937,6.13642 -10.309393,4.34039 -10.309393,4.34039 -0.45034,-0.20482 -0.401534,-1.31552 -0.08683,-1.57678 1.04332,-0.86615 1.613719,1.40081 9.929041,-4.78413 z"
       id="path40473"
       sodipodi:nodetypes="ccscc" />
    <path
       style="fill:#6c5d53;fill-opacity:1;stroke:none;stroke-width:1.03466;stroke-linecap:round;stroke-dasharray:none;stroke-dashoffset:0;stroke-opacity:1"
       d="m 20.892768,137.67603 c -8.242279,4.61229 -9.743551,3.26235 -9.743551,3.26235 -0.425623,-0.15395 -0.379495,-0.98878 -0.08206,-1.18515 0.986056,-0.65102 1.525148,1.05288 9.384075,-3.59587 z"
       id="path40473-4"
       sodipodi:nodetypes="ccscc" />
    <path
       style="fill:#6c5d53;fill-opacity:1;stroke:none;stroke-width:0.921817;stroke-linecap:round;stroke-dasharray:none;stroke-dashoffset:0;stroke-opacity:1"
       d="m 20.851054,135.48357 c -7.558482,3.9923 -8.935205,2.82382 -8.935205,2.82382 -0.390313,-0.13326 -0.348011,-0.85587 -0.07525,-1.02584 0.90425,-0.56351 1.398618,0.91135 8.605552,-3.11251 z"
       id="path40473-4-8"
       sodipodi:nodetypes="ccscc" />
    <path
       style="fill:#6c5d53;fill-opacity:1;stroke:none;stroke-width:1.1938;stroke-linecap:round;stroke-dasharray:none;stroke-dashoffset:0;stroke-opacity:1"
       d="m 23.169698,143.70219 c -0.216939,-0.009 -3.472973,-0.0167 -3.46878,1.0257 0.0019,0.47784 2.698676,0.21682 2.316505,0.75501 -0.850008,1.19701 -1.972798,3.04211 -2.549726,3.27484 -1.04275,0.42064 -4.010686,-1.76761 -4.619728,-1.18411 -1.287737,1.81138 2.69417,3.19833 2.588375,3.90705 -0.208309,0.89681 -1.791135,1.8907 -3.48262,1.66043 -4.7741435,-1.78703 -5.0469548,-1.9508 -5.0895984,-0.5958 -0.032935,1.04651 2.4109094,2.29876 3.5866744,2.81331 1.175764,0.51455 2.67397,0.79438 4.508774,0.21118 1.834803,-0.58319 7.995888,-6.44195 8.130533,-8.80532 0.134645,-2.36336 -0.824577,-3.01789 -1.920409,-3.06229 z"
       id="path39745"
       sodipodi:nodetypes="sssscccsssss" />
    <path
       style="fill:#6c5d53;stroke:none;stroke-width:1;stroke-linecap:round;stroke-dasharray:6.00001, 6.00001;stroke-dashoffset:0"
       d="m 54.698924,154.34743 c 11.803515,-2.8593 29.313966,-24.71923 33.079676,-35.73621 2.710403,-7.92956 3.416781,-13.87024 8.180085,-20.764823 3.282948,-4.751859 13.454985,-10.736834 23.596395,-10.067797 11.29443,0.745102 22.88364,3.512745 30.51801,10.067797 8.27996,7.109373 9.36013,20.044983 11.01165,30.832623 1.62003,10.58197 3.93641,22.73078 -1.25847,32.09111 -6.52121,11.75016 -15.13913,28.51171 -27.05721,34.60805 -10.7376,5.49251 -22.58271,10.04875 -34.608045,9.12394 -10.144336,-0.78015 -21.004638,-2.03032 -27.057201,-6.60699 -6.746415,-5.10133 -9.307553,-13.66548 -11.678959,-17.0185 -7.606216,-10.75472 -13.602464,-13.8716 -9.715109,-5.63404 5.176566,7.22143 9.990212,29.1248 18.562498,31.46186 16.795891,4.57906 27.631667,8.24137 44.990466,6.92161 8.9919,-0.68364 25.81383,-7.18351 33.97881,-11.01165 10.02254,-4.69905 22.96716,-21.07945 24.85488,-22.02331 1.88771,-0.94386 9.11448,-11.11473 11.9555,-17.61864 4.65372,-10.6537 7.42014,-22.36159 7.86547,-33.97882 0.50792,-13.24995 -0.3357,-27.32789 -5.97775,-39.327328 C 178.76517,74.407777 166.59118,60.820199 152.27542,51.912075 136.28931,41.964558 119.18455,37.862735 100.36335,38.383474 84.649618,38.818236 66.353188,43.348879 53.17055,51.912075 40.971594,59.83629 30.654478,71.283461 23.596398,84.003178 c -5.75263,10.367101 -5.127447,13.405971 -6.606991,25.169492 -1.585863,12.60884 -0.724234,32.40302 10.694462,39.39461 10.894534,6.67065 15.883603,8.47665 27.015055,5.78015 z"
       id="path1170"
       sodipodi:nodetypes="ssssssssssscssssssssssssss" />
    <path
       style="fill:#6c5d53;stroke:none;stroke-width:1;stroke-linecap:round;stroke-dasharray:6.00001, 6.00001;stroke-dashoffset:0"
       d="m 89.488561,111.39081 c 0,0 36.329759,14.7235 40.585809,9.43856 3.59871,-4.46869 3.42547,-15.93413 -1.06034,-24.953419 -4.40725,-8.861347 -20.01911,-11.227725 -20.01911,-11.227725 L 94.52246,87.79441 Z"
       id="path2853"
       sodipodi:nodetypes="cssccc" />
    <path
       style="fill:#6c5d53;stroke:none;stroke-width:1;stroke-linecap:round;stroke-dasharray:6.00001, 6.00001;stroke-dashoffset:0"
       d="m 34.491326,80.101443 c 0,0 -30.0165365,-25.211912 -27.3385665,-31.446736 2.2643609,-5.271866 12.4772285,-10.485661 22.5471645,-10.743502 9.893584,-0.253328 16.206035,0.943058 19.037603,3.460007 17.618644,12.899364 4.249127,23.236585 4.249127,23.236585 z"
       id="path2853-9"
       sodipodi:nodetypes="cssccc" />
    <path
       style="fill:#6c5d53;stroke:none;stroke-width:1;stroke-linecap:round;stroke-dasharray:6.00001, 6.00001;stroke-dashoffset:0"
       d="m 187.51271,98.790253 c 10.38242,8.494707 18.87712,18.562497 18.5625,21.394067 -0.31462,2.83157 -17.61865,7.55085 -17.61865,7.55085 z"
       id="path2918" />
    <path
       style="fill:#6c5d53;stroke:none;stroke-width:1;stroke-linecap:round;stroke-dasharray:6.00001, 6.00001;stroke-dashoffset:0"
       d="m 155.33054,103.49456 c -6.79283,11.56771 -11.26961,23.95636 -9.99268,26.50317 1.27692,2.54682 19.1438,0.97328 19.1438,0.97328 0,0 -1.04969,-20.71215 -9.15112,-27.47645 z"
       id="path2918-2"
       sodipodi:nodetypes="cscc" />
    <path
       style="fill:#6c5d53;stroke:none;stroke-width:1.29735;stroke-linecap:round;stroke-dasharray:7.78412, 7.78412;stroke-dashoffset:0"
       d="m 163.60169,157.30932 c -30.66522,2.9664 -32.01315,0.49441 -33.02409,6.42721 -1.01095,5.93282 2.80762,3.68972 7.41358,6.92162 7.75055,5.43841 11.79431,14.33762 11.79431,14.33762"
       id="path5846"
       sodipodi:nodetypes="cssc" />
    <path
       style="fill:#6c5d53;stroke:none;stroke-width:0.72329;stroke-linecap:round;stroke-dasharray:4.33974, 4.33974;stroke-dashoffset:0"
       d="m 126.03107,199.27643 c -17.74126,-6.75116 -17.46275,-8.04329 -20.42064,-6.03405 -2.95791,2.00925 0.0133,2.13327 1.18251,4.55387 1.96741,4.07322 0.52864,8.51692 0.52864,8.51692"
       id="path5846-8"
       sodipodi:nodetypes="cssc" />
    <path
       style="fill:#917c6f;stroke:#ac9d93;stroke-width:1;stroke-linecap:round;stroke-dasharray:none;stroke-dashoffset:0"
       d="m 32.778949,108.32943 c -0.678387,1.16963 0.959255,6.13157 2.397775,12.51535 0.59751,2.65159 -0.312031,7.57345 0.905721,9.35064 1.970522,2.87579 6.301066,4.26131 9.753176,3.77543 2.449318,-0.34474 5.062865,-5.80652 7.530286,-6.97112 5.148803,-2.43018 9.661325,-1.81994 10.717595,-6.87211 0.835917,-3.99821 -2.28607,-8.94891 -5.977752,-10.69703 -2.695913,-1.27659 -6.188425,2.99736 -8.809323,1.57309 -1.899635,-1.03231 -3.080692,-5.99464 -5.033899,-6.9216 -3.357753,-1.59355 -9.962923,1.62553 -11.483579,4.24735 z"
       id="path9754"
       sodipodi:nodetypes="ssssssssss" />
    <path
       style="fill:#917c6f;stroke:#ac9d93;stroke-width:1;stroke-linecap:round;stroke-dasharray:none;stroke-dashoffset:0"
       d="m 50.239915,78.411025 c -0.279298,3.428728 -1.060321,5.683283 0.841927,8.549579 0.525132,0.791265 4.030812,2.072331 4.971959,2.199235 2.281782,0.307672 2.373993,-1.26348 4.34823,-0.07875 1.531351,0.918954 0.798023,2.498734 1.624334,4.081996 0.923207,1.768921 2.411333,3.558541 4.318453,4.145299 2.990327,0.920026 6.447475,-0.186317 9.253849,-1.569346 4.259194,-2.099006 8.705284,-5.268387 10.444416,-9.686757 0.597533,-1.518072 0.323066,-3.398403 -0.357158,-4.881268 -1.22746,-2.67582 -3.550211,-5.073818 -6.255804,-6.23418 -2.739714,-1.174995 -6.78371,1.820315 -8.939969,-0.238128 -1.609168,-1.53617 2.726629,-6.336347 1.55799,-8.229367 -1.902012,-3.080966 -4.567194,-4.412305 -8.15132,-4.926155 -1.641402,-0.235324 -5.3628,0.835108 -6.599326,1.939906 -3.908677,3.492284 -6.632021,9.703696 -7.057577,14.92794 z"
       id="path9840"
       sodipodi:nodetypes="ssssssssssssssss" />
    <ellipse
       style="fill:#000000;stroke:none;stroke-width:1.39839;stroke-linecap:round;stroke-dasharray:8.39035, 8.39035;stroke-dashoffset:0"
       id="path9908"
       cx="56.845547"
       cy="131.54985"
       rx="2.6649034"
       ry="2.9326251" />
    <ellipse
       style="fill:#000000;stroke:none;stroke-width:1.39839;stroke-linecap:round;stroke-dasharray:8.39035, 8.39035;stroke-dashoffset:0"
       id="path9908-0"
       cx="29.806118"
       cy="121.1749"
       rx="2.6649034"
       ry="2.9326251" />
    <path
       style="fill:#917c6f;fill-opacity:1;stroke:#ac9d93;stroke-width:1;stroke-linecap:round;stroke-dasharray:none;stroke-dashoffset:0;stroke-opacity:1"
       d="m 29.032202,87.207838 c -1.336406,1.14337 -7.095227,6.96235 -5.228021,10.344806 1.907863,3.456106 7.951481,2.030948 11.790855,1.112346 3.711594,-0.88803 8.575399,-2.464115 9.6774,-6.117897 1.466493,-4.862287 -1.273966,-12.791307 -6.229131,-13.904312 -4.284927,-0.96246 -10.011103,8.565057 -10.011103,8.565057 z"
       id="path17125"
       sodipodi:nodetypes="ssssss" />
    <path
       style="fill:#917c6f;fill-opacity:1;stroke:#ac9d93;stroke-width:1;stroke-linecap:round;stroke-dasharray:none;stroke-dashoffset:0;stroke-opacity:1"
       d="m 81.124555,116.24601 c -0.539179,1.53494 -3.631863,8.44755 -7.173394,7.96831 -3.618654,-0.48966 -4.410567,-6.17856 -4.902243,-9.79701 -0.47531,-3.49802 -0.742524,-8.21986 2.040094,-10.39215 3.702977,-2.89079 11.457631,-3.17884 14.074551,0.72253 2.262956,3.37367 -4.039008,11.49832 -4.039008,11.49832 z"
       id="path17125-2"
       sodipodi:nodetypes="ssssss" />
    <path
       style="fill:#917c6f;fill-opacity:1;stroke:#ac9d93;stroke-width:1;stroke-linecap:round;stroke-dasharray:none;stroke-dashoffset:0;stroke-opacity:1"
       d="m 51.59589,100.29849 c 0.597139,1.79461 -0.474399,4.63692 1.182209,5.54953 1.570991,0.86544 3.33713,-1.32429 5.047437,-1.86453 1.237966,-0.39107 3.217461,0.18281 3.765827,-0.99396 0.44847,-0.9624 -0.965224,-1.89482 -1.358432,-2.88109 -0.620348,-1.555991 -0.09491,-3.983009 -1.571969,-4.773092 -1.603376,-0.857647 -3.455246,1.21132 -5.256977,1.456552 -1.131789,0.154046 -2.811259,-0.96135 -3.426673,9.09e-4 -0.69347,1.084307 1.212214,2.284416 1.618578,3.505681 z"
       id="path18671"
       sodipodi:nodetypes="sssssssss" />
    <path
       style="fill:#6c5d53;fill-opacity:1;stroke:none;stroke-width:1.2276;stroke-linecap:round;stroke-dasharray:none;stroke-dashoffset:0;stroke-opacity:1"
       d="m 21.491126,132.37891 c -4.931682,1.7634 -5.030083,1.24821 -6.719594,1.67887 -1.750341,0.44616 -4.531831,2.51843 -5.1602301,1.17279 -0.2443286,-1.35817 2.8369561,-1.08694 2.8667701,-1.94989 0.0405,-1.17219 -3.4810772,0.39171 -2.8035515,-1.95182 0.5829775,-2.01649 2.2418915,2.72326 11.9048035,-1.0219 z"
       id="path40473-0"
       sodipodi:nodetypes="cscsscc" />
    <path
       style="fill:#6c5d53;fill-opacity:1;stroke:none;stroke-width:1.2276;stroke-linecap:round;stroke-dasharray:none;stroke-dashoffset:0;stroke-opacity:1"
       d="m 17.814529,124.30283 c -0.478884,-0.29134 -6.982475,1.02795 -7.149839,-0.95204 0.357481,-1.33286 4.272996,0.19569 4.667558,-0.57236 0.535956,-1.04327 -4.559612,-1.09906 -2.948364,-2.93074 1.386401,-1.57606 1.65031,0.71333 6.393023,2.61813 z"
       id="path40473-0-1"
       sodipodi:nodetypes="ccsscc" />
    <path
       style="fill:#6c5d53;fill-opacity:1;stroke:none;stroke-width:1.2276;stroke-linecap:round;stroke-dasharray:none;stroke-dashoffset:0;stroke-opacity:1"
       d="m 20.034286,127.08335 c -5.541255,0.44665 -6.995673,3.74499 -7.54168,2.74043 -0.244329,-1.35817 1.323191,-1.2669 1.170444,-2.11674 -0.07074,-0.39355 -1.675139,-0.34443 -0.940374,-1.5347 0.347345,-0.56267 0.741268,0.52264 2.901615,0.3365 1.026822,-0.0885 2.711019,-0.8732 4.498193,-1.49744 z"
       id="path40473-0-4"
       sodipodi:nodetypes="ccssscc" />
    <path
       style="fill:#6c5d53;fill-opacity:1;stroke:none;stroke-width:1.2276;stroke-linecap:round;stroke-dasharray:none;stroke-dashoffset:0;stroke-opacity:1"
       d="m 48.568949,154.76355 c -2.152946,10.4439 0.12731,11.18509 0.12731,11.18509 0.367312,0.33142 1.366567,-0.15594 1.480779,-0.5487 0.378655,-1.30205 -1.927835,-0.92184 0.431242,-11.01307 z"
       id="path40473-2"
       sodipodi:nodetypes="ccscc" />
    <path
       style="fill:#6c5d53;fill-opacity:1;stroke:none;stroke-width:1.03466;stroke-linecap:round;stroke-dasharray:none;stroke-dashoffset:0;stroke-opacity:1"
       d="m 51.967115,153.5019 c -0.945795,9.39754 0.890576,10.23653 0.890576,10.23653 0.310805,0.32902 1.058107,-0.046 1.119686,-0.39701 0.204162,-1.16381 -1.573432,-0.97927 -0.441437,-10.03974 z"
       id="path40473-4-4"
       sodipodi:nodetypes="ccscc" />
    <path
       style="fill:#6c5d53;fill-opacity:1;stroke:none;stroke-width:0.921817;stroke-linecap:round;stroke-dasharray:none;stroke-dashoffset:0;stroke-opacity:1"
       d="m 54.422488,153.60973 c 0.71732,8.51789 2.443964,9.04648 2.443964,9.04648 0.322806,0.2567 0.908361,-0.16886 0.904295,-0.49017 -0.0135,-1.06537 -1.521972,-0.68576 -2.023031,-8.92472 z"
       id="path40473-4-8-2"
       sodipodi:nodetypes="ccscc" />
    <path
       style="fill:#6c5d53;fill-opacity:1;stroke:none;stroke-width:1.1938;stroke-linecap:round;stroke-dasharray:none;stroke-dashoffset:0;stroke-opacity:1"
       d="m 44.352308,154.85536 c 0.129098,0.17457 1.961138,2.8663 1.095664,3.44732 -0.396695,0.26639 -1.692695,-2.11299 -1.924035,-1.49477 -0.514544,1.37499 -1.412764,3.33922 -1.281984,3.94742 0.236382,1.09928 3.712417,2.32981 3.570762,3.16128 -0.777809,2.08191 -4.158903,-0.4375 -4.686411,0.0475 -0.625774,0.67533 -0.561233,2.54322 0.577852,3.81468 3.044237,2.11681 3.388422,2.52896 2.29037,3.32403 -0.848232,0.61382 -2.198487,-0.15117 -3.283808,-0.83622 -1.085306,-0.68505 -2.157061,-1.76868 -2.70294,-3.61493 -0.5459,-1.84624 0.850707,-10.23276 2.732118,-11.66939 1.881386,-1.43666 2.961207,-1.00938 3.612412,-0.1269 z"
       id="path39745-4"
       sodipodi:nodetypes="sssscccssssss" />
    <path
       style="fill:#6c5d53;fill-opacity:1;stroke:none;stroke-width:1.2276;stroke-linecap:round;stroke-dasharray:none;stroke-dashoffset:0;stroke-opacity:1"
       d="m 56.753255,150.9995 c 1.634935,4.97576 2.102054,4.73721 2.799084,6.33535 0.722132,1.65568 0.793435,5.12352 2.24148,4.79366 1.222192,-0.64076 -0.883229,-2.90683 -0.220263,-3.46005 0.900533,-0.75147 1.827452,2.98862 3.261708,1.01527 1.234109,-1.69795 -3.525984,-0.0984 -6.500419,-10.02562 z"
       id="path40473-0-6"
       sodipodi:nodetypes="cscsscc" />
    <path
       style="fill:#6c5d53;fill-opacity:1;stroke:none;stroke-width:1.2276;stroke-linecap:round;stroke-dasharray:none;stroke-dashoffset:0;stroke-opacity:1"
       d="m 65.265449,145.92564 c 0.45804,0.32312 1.839645,6.81377 3.722328,6.17825 1.08001,-0.859 -1.882229,-3.84109 -1.335026,-4.50903 0.743287,-0.9073 3.381488,3.92782 3.86289,1.53628 0.225644,-1.12097 -1.311877,-1.22935 -4.948836,-4.8202 z"
       id="path40473-0-1-7"
       sodipodi:nodetypes="ccsscc" />
    <path
       style="fill:#6c5d53;fill-opacity:1;stroke:none;stroke-width:1.2276;stroke-linecap:round;stroke-dasharray:none;stroke-dashoffset:0;stroke-opacity:1"
       d="m 60.635823,150.27537 c 3.428345,2.58568 1.979991,5.34065 3.060955,4.96812 0.944759,-0.76903 0.173798,-1.16768 0.860191,-1.69153 0.317888,-0.24255 1.468347,0.87674 1.729798,-0.49741 0.123593,-0.64959 -0.89969,-0.11483 -2.367831,-1.71055 -0.697791,-0.75847 -1.41058,-2.47435 -2.307655,-4.14135 z"
       id="path40473-0-4-5"
       sodipodi:nodetypes="ccssscc"
       inkscape:transform-center-x="-0.27808618"
       inkscape:transform-center-y="-0.44493796" />
    <path
       style="fill:#917c6f;fill-opacity:1;stroke:#ac9d93;stroke-width:1;stroke-linecap:round;stroke-dasharray:none;stroke-dashoffset:0;stroke-opacity:1"
       d="m 16.907642,117.35238 c 0.06213,-2.44778 4.614649,2.05231 6.229131,3.89321 3.654111,4.16657 6.728751,9.58852 6.896538,15.12789 0.10945,3.61342 -1.329771,12.59735 -4.117653,10.29594 -4.41923,-3.6481 -6.762001,-9.73491 -7.940226,-15.66502 -1.064389,-5.35715 -1.14547,-10.59153 -1.06779,-13.65202 z"
       id="path19437"
       sodipodi:nodetypes="ssssss" />
    <path
       style="fill:#917c6f;fill-opacity:1;stroke:#ac9d93;stroke-width:1;stroke-linecap:round;stroke-dasharray:none;stroke-dashoffset:0;stroke-opacity:1"
       d="m 70.032739,143.48583 c 1.657422,-1.80234 -5.747508,-2.90484 -8.195223,-2.96933 -5.539993,-0.14598 -11.674821,0.95621 -16.041511,4.36866 -2.848461,2.226 -8.70117,8.58584 -5.259402,9.69173 3.895722,1.25175 10.817728,0.46066 15.019562,-0.95373 6.377216,-2.14666 11.765222,-7.1889 14.476574,-10.13733 z"
       id="path19437-4"
       sodipodi:nodetypes="ssssss" />
    <path
       style="fill:#917c6f;fill-opacity:1;stroke:#ac9d93;stroke-width:1;stroke-linecap:round;stroke-dasharray:none;stroke-dashoffset:0;stroke-opacity:1"
       d="m 24.225635,47.664723 c 1.907368,2.733176 4.220864,7.101043 2.20233,9.753179 -2.002985,2.631707 -6.922598,1.889795 -9.910487,0.471927 -2.94667,-1.398308 -6.332507,-4.6443 -5.820445,-7.865467 0.52539,-3.304997 4.834403,-5.746621 8.180085,-5.820444 2.122997,-0.04684 4.133267,1.719404 5.348517,3.460805 z"
       id="path19590"
       sodipodi:nodetypes="ssssss" />
    <path
       style="fill:#917c6f;fill-opacity:1;stroke:#ac9d93;stroke-width:0.923712;stroke-linecap:round;stroke-dasharray:none;stroke-dashoffset:0;stroke-opacity:1"
       d="m 120.19204,106.47665 c -3.32776,-0.1582 -8.25955,0.12218 -9.45421,2.77699 -1.18548,2.63437 2.03222,5.87214 4.80925,7.40464 2.73872,1.51135 7.28003,2.51257 9.7508,0.69584 2.53506,-1.86399 2.3464,-6.08677 0.65011,-8.54815 -1.0764,-1.56183 -3.63573,-2.22853 -5.75595,-2.32932 z"
       id="path19590-7"
       sodipodi:nodetypes="ssssss" />
    <path
       style="fill:#917c6f;fill-opacity:1;stroke:#ac9d93;stroke-width:1;stroke-linecap:round;stroke-dasharray:none;stroke-dashoffset:0;stroke-opacity:1"
       d="m 31.627078,69.634049 c 3.231961,-4.233034 4.885644,-6.081127 7.266495,-8.310405 2.548195,-2.385967 5.176644,-4.265979 8.141914,-6.108072 1.558315,-0.968061 3.033013,-1.91433 4.71928,-2.831568 -3.008604,-2.877513 -6.341943,-2.085427 -9.595869,-1.887712 -2.697918,0.163931 -5.54351,0.898327 -7.708156,2.51695 -2.44615,1.829119 -4.832971,4.517532 -5.19121,7.550845 -0.342643,2.901258 -0.527314,8.676917 2.367546,9.069962 z"
       id="path19729"
       sodipodi:nodetypes="csscsssc" />
    <path
       style="fill:#917c6f;fill-opacity:1;stroke:#ac9d93;stroke-width:1;stroke-linecap:round;stroke-dasharray:none;stroke-dashoffset:0;stroke-opacity:1"
       d="m 92.383822,105.29366 c 0.2396,-3.25281 3.93156,-9.326892 6.605334,-11.194806 3.848124,-2.694648 8.709404,-5.650066 14.061464,-5.676197 0.0265,4.031964 -3.71054,10.230946 -6.28481,12.670933 -3.19135,3.69684 -9.848306,5.34284 -14.381988,4.20007 z"
       id="path19729-6"
       sodipodi:nodetypes="ccccc" />
    <path
       style="fill:#917c6f;fill-opacity:1;stroke:#ac9d93;stroke-width:1;stroke-linecap:round;stroke-dasharray:none;stroke-dashoffset:0;stroke-opacity:1"
       d="m 76.410842,54.378121 c -0.05315,3.172934 0.447553,5.175442 2.945392,7.132771 4.152288,3.253767 12.485546,-0.0046 17.713348,-0.710667 6.906118,-0.932788 16.161768,0.08535 20.130498,-5.642966 1.94451,-2.806621 -0.79985,-7.011343 -3.03995,-9.588204 C 110.86598,41.779669 97.195952,44.56752 92.177301,44.722471 85.389288,46.071187 78.31818,50.45937 76.410842,54.378124 Z"
       id="path22087"
       sodipodi:nodetypes="cssssccc" />
    <path
       style="fill:#917c6f;fill-opacity:1;stroke:#ac9d93;stroke-width:1;stroke-linecap:round;stroke-dasharray:none;stroke-dashoffset:0;stroke-opacity:1"
       d="m 90.356984,72.543358 c 2.716838,-4.521871 7.90084,-4.349179 13.036176,-5.556202 6.78396,-1.594525 8.93094,-2.074857 12.16641,-0.02887 2.88584,1.824892 4.12132,8.420628 1.80748,10.93149 -1.88133,2.041528 -3.36113,3.312576 -8.1043,4.959747 -6.82215,1.163842 -9.11351,0.878821 -12.992363,-1.590792 -3.034941,-1.932307 -7.158265,-6.444678 -5.913403,-8.715373 z"
       id="path22087-0"
       sodipodi:nodetypes="cssscsc" />
    <path
       style="fill:#917c6f;fill-opacity:1;stroke:#ac9d93;stroke-width:1;stroke-linecap:round;stroke-dasharray:none;stroke-dashoffset:0;stroke-opacity:1"
       d="m 119.87029,62.122823 c -0.44225,2.867497 1.60367,6.805534 4.67185,7.563946 3.06818,0.758412 8.11623,-1.722388 8.67629,-5.116785 0.56006,-3.394397 -3.72412,-7.773012 -6.89653,-8.008885 -3.17241,-0.235873 -6.00936,2.694227 -6.45161,5.561724 z"
       id="path22994"
       sodipodi:nodetypes="zzzzz" />
    <path
       style="fill:#917c6f;fill-opacity:1;stroke:#ac9d93;stroke-width:1;stroke-linecap:round;stroke-dasharray:none;stroke-dashoffset:0;stroke-opacity:1"
       d="m 126.39162,78.01267 c 0,0 0.71461,6.185543 2.93961,7.902824 2.08018,1.605532 5.3348,0.0058 7.84379,0.78669 2.08367,0.648541 3.55931,3.337714 5.73424,3.158962 2.52328,-0.207381 5.44404,-2.224332 5.96501,-4.701937 1.03892,-4.940713 -2.41252,-11.945082 -7.11146,-13.372989 -6.06434,-1.84282 -16.07781,4.326783 -15.37119,6.22645 z"
       id="path23750"
       sodipodi:nodetypes="sssssss" />
    <path
       style="fill:#917c6f;fill-opacity:1;stroke:#ac9d93;stroke-width:1;stroke-linecap:round;stroke-dasharray:none;stroke-dashoffset:0;stroke-opacity:1"
       d="m 158.55762,67.374786 c 0,0 0.70117,-6.893435 -1.52383,-8.610716 -2.08018,-1.605532 -5.25614,-1.578893 -7.76513,-2.359783 -2.08367,-0.648541 -4.73913,-5.854663 -6.91406,-5.675913 -2.52328,0.20738 -5.68001,1.123169 -6.20098,3.600774 -1.03892,4.940713 3.35638,13.124902 8.05532,14.552806 6.06434,1.84282 15.0553,0.392499 14.34868,-1.507168 z"
       id="path23750-9"
       sodipodi:nodetypes="sssssss" />
    <path
       style="fill:#917c6f;fill-opacity:1;stroke:#ac9d93;stroke-width:1;stroke-linecap:round;stroke-dasharray:none;stroke-dashoffset:0;stroke-opacity:1"
       d="m 149.91578,121.91473 c -2.17407,0.5334 -3.24104,4.43127 -2.12368,6.37102 0.47231,0.81994 3.80722,1.70129 5.50583,0.94385 1.30321,-0.58112 1.49561,-1.5187 1.17982,-2.91022 -0.46781,-2.06137 -2.50908,-4.90833 -4.56197,-4.40465 z"
       id="path28920"
       sodipodi:nodetypes="sssss" />
    <path
       style="fill:#917c6f;fill-opacity:1;stroke:#ac9d93;stroke-width:1;stroke-linecap:round;stroke-dasharray:none;stroke-dashoffset:0;stroke-opacity:1"
       d="m 199.24382,114.40242 c 2.2133,-0.33523 4.68499,2.86205 4.39102,5.08122 -0.12425,0.93805 -2.87177,3.02361 -4.73085,2.97053 -1.42632,-0.0407 -1.96145,-0.83426 -2.19969,-2.24113 -0.35293,-2.08412 0.44958,-5.49409 2.53952,-5.81062 z"
       id="path28920-0"
       sodipodi:nodetypes="sssss" />
    <path
       style="fill:#917c6f;fill-opacity:1;stroke:#ac9d93;stroke-width:1;stroke-linecap:round;stroke-dasharray:none;stroke-dashoffset:0;stroke-opacity:1"
       d="m 157.50804,85.650553 c 1.49011,-1.806166 5.35821,0.430467 6.89653,-1.334812 1.80524,-2.071579 -1.99076,-6.959449 0.44494,-8.231351 3.247,-1.695561 7.5326,2.600191 9.3437,5.784193 2.05355,3.610235 -0.54133,8.37568 0.22247,12.458261 0.71188,3.805055 4.93942,9.554416 1.77975,11.790866 -4.0842,2.89084 -4.74416,-8.485776 -9.34369,-10.456051 -2.88317,-1.235047 -7.26103,1.232968 -9.3437,-1.112345 -1.96959,-2.217969 -1.88769,-6.610683 0,-8.898761 z"
       id="path30428"
       sodipodi:nodetypes="sssssssss" />
    <path
       style="fill:#917c6f;fill-opacity:1;stroke:#ac9d93;stroke-width:1;stroke-linecap:round;stroke-dasharray:none;stroke-dashoffset:0;stroke-opacity:1"
       d="m 166.7483,107.29317 c 1.87867,0.55094 4.20298,2.29039 4.06115,4.24303 -0.39067,5.37837 -5.15476,11.16507 -10.30157,9.55573 -0.40501,-2.19441 -2.16647,-10.8974 -3.06121,-12.11097 0.15424,-4.18223 5.28568,-2.8655 9.30163,-1.68779 z"
       id="path31156"
       sodipodi:nodetypes="ssccs" />
    <path
       style="fill:#917c6f;fill-opacity:1;stroke:#ac9d93;stroke-width:1;stroke-linecap:round;stroke-dasharray:none;stroke-dashoffset:0;stroke-opacity:1"
       d="m 181.22263,107.21378 c -1.32176,1.44426 -0.99342,4.05736 0.13918,5.65428 3.11965,4.39855 6.80983,10.42087 10.37915,6.37865 -0.23944,-5.23314 -0.0151,-9.97218 -1.21529,-13.59738 -2.29792,-3.49777 -6.47756,-1.52287 -9.30304,1.56445 z"
       id="path31156-0"
       sodipodi:nodetypes="ssccs" />
    <path
       style="fill:#917c6f;fill-opacity:1;stroke:#ac9d93;stroke-width:1;stroke-linecap:round;stroke-dasharray:none;stroke-dashoffset:0;stroke-opacity:1"
       d="m 176.31871,119.45366 c -3.42017,-0.61978 -4.93861,5.50697 -5.33362,8.96032 -0.3607,3.15347 0.40161,7.1092 2.897,9.07071 1.51358,1.18974 4.4751,1.84059 5.7612,0.40797 4.17211,-4.64747 2.82077,-17.32539 -3.32457,-18.43901 z"
       id="path31975"
       sodipodi:nodetypes="sssss" />
    <path
       style="fill:#917c6f;fill-opacity:1;stroke:#ac9d93;stroke-width:1;stroke-linecap:round;stroke-dasharray:none;stroke-dashoffset:0;stroke-opacity:1"
       d="m 167.63597,145.35552 c -1.33482,3.11456 -2.18346,5.25678 -1.00671,7.48066 0.62043,1.17252 2.24683,1.9711 3.55951,1.77975 1.60936,-0.2346 2.84601,-1.87552 3.5595,-3.33703 0.71867,-1.47211 0.97771,-3.34521 0.44494,-4.89432 -0.52893,-1.53796 -1.71533,-3.43632 -3.33703,-3.5595 -1.36124,-0.1034 -2.22909,0.21785 -3.22021,2.53044 z"
       id="path31977"
       sodipodi:nodetypes="sssssss" />
    <path
       style="fill:#917c6f;fill-opacity:1;stroke:#ac9d93;stroke-width:1;stroke-linecap:round;stroke-dasharray:none;stroke-dashoffset:0;stroke-opacity:1"
       d="m 185.43449,153.13139 c 1.33482,-3.11456 2.26211,-6.4366 1.08536,-8.66048 -0.62043,-1.17252 -2.24683,-1.9711 -3.55951,-1.77975 -1.60936,0.2346 -3.47525,2.97669 -4.18874,4.4382 -0.71867,1.47211 -0.42712,3.42386 0.10565,4.97297 0.52893,1.53796 1.71533,3.43632 3.33703,3.5595 1.36124,0.1034 2.22909,-0.21785 3.22021,-2.53044 z"
       id="path31977-1"
       sodipodi:nodetypes="sssssss" />
    <path
       style="fill:#917c6f;fill-opacity:1;stroke:#ac9d93;stroke-width:1;stroke-linecap:round;stroke-dasharray:none;stroke-dashoffset:0;stroke-opacity:1"
       d="m 155.50582,165.96186 c -0.72612,0.93837 -0.61,2.54181 -1e-5,3.5595 2.50725,4.18301 8.15679,8.01701 12.9032,6.89654 2.12266,-0.50109 3.6729,-3.16098 3.78198,-5.33925 0.15779,-3.15097 -1.76653,-7.00148 -4.67185,-8.23136 -3.80956,-1.61265 -9.48166,-0.15714 -12.01332,3.11457 z"
       id="path32828"
       sodipodi:nodetypes="ssssss" />
    <path
       style="fill:#917c6f;fill-opacity:1;stroke:#ac9d93;stroke-width:1;stroke-linecap:round;stroke-dasharray:none;stroke-dashoffset:0;stroke-opacity:1"
       d="m 141.04533,162.40235 c 1.74543,-0.76709 4.51444,-0.25834 5.56172,1.33482 0.95095,1.44663 0.60485,4.24338 -0.88987,5.11678 -2.10609,1.23064 -6.03414,-0.16541 -6.89654,-2.44715 -0.53986,-1.42836 0.82676,-3.39008 2.22469,-4.00445 z"
       id="path33556"
       sodipodi:nodetypes="sssss" />
    <path
       style="fill:#917c6f;fill-opacity:1;stroke:#ac9d93;stroke-width:1;stroke-linecap:round;stroke-dasharray:none;stroke-dashoffset:0;stroke-opacity:1"
       d="m 138.47871,192.11921 c 3.63364,0.47377 1.03815,5.36556 -0.86405,6.60159 -2.10609,1.23064 -6.03414,0.49583 -6.89654,-1.78591 2.241,-1.20589 6.69636,-3.8676 7.76059,-4.81568 z"
       id="path33556-0-4"
       sodipodi:nodetypes="cccc" />
    <path
       style="fill:#917c6f;fill-opacity:1;stroke:#ac9d93;stroke-width:1;stroke-linecap:round;stroke-dasharray:none;stroke-dashoffset:0;stroke-opacity:1"
       d="m 88.531909,207.99142 c 1.74543,-0.76709 9.448083,-0.86396 10.495363,0.7292 0.95095,1.44663 1.661588,3.52035 0.166862,4.39375 -3.492667,-0.26369 -9.74421,-1.39515 -12.21951,-2.00838 -0.53986,-1.42836 0.159353,-2.5002 1.557285,-3.11457 z"
       id="path33556-0-4-6"
       sodipodi:nodetypes="ssccs" />
    <path
       style="fill:#917c6f;fill-opacity:1;stroke:#ac9d93;stroke-width:1;stroke-linecap:round;stroke-dasharray:none;stroke-dashoffset:0;stroke-opacity:1"
       d="m 115.03406,199.27698 c 1.74543,-0.76709 6.51666,1.52141 7.56394,3.11457 0.95095,1.44663 0.60485,4.24338 -0.88987,5.11678 -2.10609,1.23064 -8.03636,-1.94516 -8.89876,-4.2269 -0.53986,-1.42836 0.82676,-3.39008 2.22469,-4.00445 z"
       id="path33556-3"
       sodipodi:nodetypes="sssss" />
    <path
       style="fill:#917c6f;fill-opacity:1;stroke:#ac9d93;stroke-width:1;stroke-linecap:round;stroke-dasharray:none;stroke-dashoffset:0;stroke-opacity:1"
       d="m 148.16433,191.54578 c 0.4572,2.53327 3.21925,5.84421 5.78419,6.06228 3.36165,-2.66326 9.827,-8.74966 12.12794,-11.60434 0.29353,-2.98596 -3.12102,-5.55691 -6.12127,-5.58139 -6.55385,-0.0535 -12.37423,7.89109 -11.79086,11.12345 z"
       id="path33664"
       sodipodi:nodetypes="sccss" />
    <path
       style="fill:#6c5d53;fill-opacity:1;stroke:none;stroke-width:1;stroke-linecap:round;stroke-dasharray:none;stroke-dashoffset:0;stroke-opacity:1"
       d="m 71.733052,207.56965 c -10.697036,0.15731 -9.202597,2.83156 -12.820712,1.10116 -0.314619,-3.46081 3.067533,-7.70816 3.067533,-7.70816 z"
       id="path36783"
       sodipodi:nodetypes="cccc" />
    <path
       style="fill:#6c5d53;fill-opacity:1;stroke:none;stroke-width:1;stroke-linecap:round;stroke-dasharray:none;stroke-dashoffset:0;stroke-opacity:1"
       d="m 63.054048,202.49527 c 0,0 -11.552363,-0.87831 -14.787075,-1.88771 -2.46297,-2.48996 -4.009075,-17.63118 -2.674261,-21.07945 0.426799,-0.14227 2.301173,-1.34485 1.968512,-2.088 -0.694064,-1.55051 -2.95076,-1.43424 -4.34384,-2.57153 -1.395362,-1.13915 2.596857,-4.2853 5.756521,-4.2853 z"
       id="path36923"
       sodipodi:nodetypes="cccsscc" />
    <path
       style="fill:#917c6f;fill-opacity:1;stroke:#ac9d93;stroke-width:1;stroke-linecap:round;stroke-dasharray:none;stroke-dashoffset:0;stroke-opacity:1"
       d="m 55.978138,177.26783 c -2.17407,0.5334 -3.296652,2.26219 -2.179297,4.20194 0.47231,0.81994 2.639258,4.87148 4.337868,4.11404 1.30321,-0.58112 1.996165,-0.46197 2.403399,-1.63102 -0.690279,-2.17261 -3.51019,-5.68697 -4.56197,-6.68496 z"
       id="path28920-9"
       sodipodi:nodetypes="csscc" />
    <path
       style="fill:#917c6f;fill-opacity:1;stroke:#ac9d93;stroke-width:1;stroke-linecap:round;stroke-dasharray:none;stroke-dashoffset:0;stroke-opacity:1"
       d="m 49.276878,193.54801 c -0.598848,1.60087 -1.457911,3.82931 -0.333703,5.11678 1.393508,1.59588 4.600597,1.65403 6.340366,0.44494 1.079057,-0.74991 1.876372,-3.42017 1.223577,-4.56061 -0.592437,-1.035 -2.608346,-4.38492 -3.949847,-4.75729 -1.410029,-0.39139 -2.712743,2.23871 -3.280393,3.75618 z"
       id="path37746"
       sodipodi:nodetypes="ssssss" />
    <path
       style="fill:#917c6f;fill-opacity:1;stroke:#ac9d93;stroke-width:1;stroke-linecap:round;stroke-dasharray:none;stroke-dashoffset:0;stroke-opacity:1"
       d="m 67.507682,200.33981 c 1.634193,-0.32215 2.512217,-0.14711 3.559497,1.44605 0.95095,1.44663 0.479967,3.14007 -1.223569,3.44826 -1.883618,0.34076 -3.586986,-0.16541 -4.449386,-1.77974 -0.719501,-1.34684 0.615312,-2.81924 2.113458,-3.11457 z"
       id="path33556-0-4-6-9"
       sodipodi:nodetypes="sssss" />
    <path
       style="fill:#ffffff;fill-opacity:1;stroke:none;stroke-width:1;stroke-linecap:round;stroke-dasharray:none;stroke-dashoffset:0;stroke-opacity:1"
       d="m 29.671799,118.95138 c -0.24313,0.44378 0.232929,1.20887 0.723025,1.33481 0.298843,0.0768 0.718435,-0.19793 0.778642,-0.50055 0.07107,-0.3572 -0.294379,-0.74049 -0.622941,-0.89762 -0.264934,-0.12669 -0.737625,-0.19419 -0.878726,0.0634 z"
       id="path38774"
       sodipodi:nodetypes="sssss" />
    <path
       style="fill:#ffffff;fill-opacity:1;stroke:none;stroke-width:1;stroke-linecap:round;stroke-dasharray:none;stroke-dashoffset:0;stroke-opacity:1"
       d="m 56.695373,129.35146 c -0.24313,0.44378 0.232929,1.20887 0.723025,1.33481 0.298843,0.0768 0.718435,-0.19793 0.778642,-0.50055 0.07107,-0.3572 -0.294379,-0.74049 -0.622941,-0.89762 -0.264934,-0.12669 -0.737625,-0.19419 -0.878726,0.0634 z"
       id="path38774-0"
       sodipodi:nodetypes="sssss" />
  </g>
</svg>
